<?xml version="1.0" standalone="no"?>
<!DOCTYPE svg PUBLIC "-//W3C//DTD SVG 20010904//EN"
 "http://www.w3.org/TR/2001/REC-SVG-20010904/DTD/svg10.dtd">
<svg version="1.0" xmlns="http://www.w3.org/2000/svg"
 width="699.000000pt" height="699.000000pt" viewBox="0 0 699.000000 699.000000"
 preserveAspectRatio="xMidYMid meet">
<metadata>
Created by potrace 1.14, written by Peter Selinger 2001-2017
</metadata>
<g transform="translate(0.000000,699.000000) scale(0.100000,-0.100000)"
fill="#000000" stroke="none">
<path d="M3207 5914 c-3 -3 -31 -7 -63 -9 -33 -2 -88 -7 -124 -10 -70 -6 -105
-10 -265 -31 -71 -9 -268 -43 -340 -59 -38 -9 -92 -20 -120 -25 -52 -10 -59
-12 -290 -81 -609 -179 -1119 -474 -1536 -889 -191 -191 -332 -370 -432 -551
l-37 -66 0 -1560 0 -1560 3490 -2 3490 -2 1 28 c0 15 1 719 1 1563 l1 1535
-33 60 c-158 285 -460 612 -795 860 -549 407 -1195 655 -1985 761 -19 2 -48 6
-65 9 -16 2 -68 7 -115 10 -47 4 -96 9 -110 12 -34 7 -666 14 -673 7z"/>
</g>
</svg>
